Coordinates
version=1
nRows=38
nColumns=12
inDegrees=yes

Units are S.I. units (second, meters, Newtons, ...)
Angles are in degrees

endheader
time	SC_y	SC_z	SC_x	AC_y	AC_z	AC_x	GH_y	GH_z	GH_yy	EL_x	PS_y
       0.0              -25.51          31.89          23.86          62.44         -7.097          7.681          44.46         -3.518           42.3          103.4          115.9
   0.02462              -25.51          31.89          23.87          62.43         -7.097          7.681          44.47         -3.512          42.32          103.4          115.9
   0.04925              -25.51          31.89          23.88          62.43         -7.097           7.68          44.48         -3.506          42.34          103.4          115.9
   0.07387              -25.52          31.89          23.89          62.43         -7.096          7.679           44.5         -3.499          42.36          103.4          115.9
   0.09849              -25.52          31.89           23.9          62.42         -7.096          7.678          44.51         -3.491          42.38          103.4          115.9
    0.1231              -25.53          31.89          23.91          62.42         -7.096          7.677          44.53         -3.484           42.4          103.4          115.9
    0.1477              -25.53          31.89          23.92          62.42         -7.095          7.676          44.54         -3.475          42.42          103.4          115.9
    0.1724              -25.54          31.89          23.93          62.41         -7.095          7.675          44.56         -3.466          42.45          103.4          115.9
     0.197              -25.54          31.88          23.94          62.41         -7.095          7.674          44.58         -3.457          42.48          103.4          115.9
    0.2216              -25.55          31.88          23.95           62.4         -7.094          7.673           44.6         -3.446          42.51          103.4          115.9
    0.2462              -25.55          31.88          23.97           62.4         -7.094          7.672          44.62         -3.435          42.54          103.4          115.8
    0.2709              -25.56          31.88          23.98          62.39         -7.093           7.67          44.65         -3.423          42.57          103.4          115.8
    0.2955              -25.57          31.88           24.0          62.39         -7.093          7.669          44.67          -3.41          42.61          103.4          115.8
    0.3201              -25.58          31.88          24.02          62.38         -7.092          7.667           44.7         -3.397          42.64          103.4          115.8
    0.3447              -25.58          31.88          24.04          62.37         -7.091          7.665          44.73         -3.382          42.69          103.4          115.8
    0.3694              -25.59          31.87          24.06          62.37         -7.091          7.663          44.76         -3.365          42.73          103.5          115.8
     0.394               -25.6          31.87          24.08          62.36          -7.09          7.661           44.8         -3.348          42.78          103.5          115.7
    0.4186              -25.62          31.87           24.1          62.35         -7.089          7.659          44.84         -3.328          42.84          103.5          115.7
    0.4432              -25.63          31.87          24.13          62.34         -7.088          7.656          44.88         -3.307           42.9          103.5          115.7
    0.4678              -25.64          31.86          24.16          62.33         -7.087          7.654          44.92         -3.284          42.96          103.5          115.7
    0.4925              -25.66          31.86          24.19          62.32         -7.086          7.651          44.97         -3.259          43.03          103.5          115.6
    0.5171              -25.67          31.86          24.23           62.3         -7.085          7.647          45.03         -3.231          43.11          103.5          115.6
    0.5417              -25.69          31.85          24.26          62.29         -7.084          7.644          45.09           -3.2           43.2          103.5          115.6
    0.5663              -25.71          31.85          24.31          62.27         -7.083           7.64          45.16         -3.166          43.29          103.5          115.5
     0.591              -25.73          31.84          24.35          62.26         -7.081          7.635          45.23         -3.128           43.4          103.5          115.5
    0.6156              -25.76          31.84          24.41          62.24         -7.079           7.63          45.32         -3.086          43.52          103.5          115.5
    0.6402              -25.78          31.83          24.47          62.22         -7.077          7.624          45.41         -3.039          43.65          103.5          115.4
    0.6648              -25.81          31.83          24.54          62.19         -7.075          7.618          45.52         -2.986           43.8          103.5          115.3
    0.6895              -25.85          31.82          24.61          62.16         -7.073          7.611          45.64         -2.925          43.97          103.5          115.3
    0.7141              -25.89          31.81           24.7          62.13          -7.07          7.603          45.77         -2.857          44.16          103.5          115.2
    0.7387              -25.93           31.8           24.8           62.1         -7.067          7.594          45.93         -2.779          44.38          103.5          115.1
    0.7633              -25.99          31.79          24.91          62.05         -7.063          7.583          46.11         -2.689          44.63          103.5          115.0
    0.7879              -26.05          31.78          25.04          62.01         -7.059          7.571          46.31         -2.586          44.92          103.6          114.9
    0.8126              -26.12          31.76          25.19          61.95         -7.054          7.556          46.55         -2.466          45.26          103.6          114.8
    0.8372               -26.2          31.74          25.37          61.89         -7.048           7.54          46.83         -2.326          45.65          103.6          114.6
    0.8618              -26.29          31.72          25.58          61.81         -7.041           7.52          47.16          -2.16          46.12          103.6          114.4
    0.8864              -26.41           31.7          25.83          61.72         -7.033          7.496          47.55         -1.963          46.67          103.6          114.2
    0.9111              -26.55          31.67          26.12          61.61         -7.023          7.468          48.02         -1.727          47.33          103.7          113.9
